<?xml version="1.0" encoding="UTF-8"?>
<svg viewBox="0 0 520.055 72.529" xmlns="http://www.w3.org/2000/svg" xmlns:xlink="http://www.w3.org/1999/xlink">
<defs>
<style>.cls-1, .cls-2 {
        fill: #1a1a1a;
      }
      .cls-1 {
        stroke: #666;
        stroke-miterlimit: 10;
      }
      .cls-3 {
        fill: #666;
      }
      .cls-4 {
        fill: #8fc9f6;
      }
      .cls-5 {
        fill: #aff7ff;
      }
      .cls-6 {
        fill: #333;
      }
      .cls-7 {
        fill: #23ffff;
      }
      .cls-8 {
        fill: #262125;
        stroke: #feffff;
        stroke-miterlimit: 2.597;
        stroke-width: 0.529px;
      }
      .cls-10, .cls-9 {
        fill: #83935f;
      }
      .cls-9 {
        opacity: 0.5;
        isolation: isolate;
      }
      .cls-11, .cls-12, .cls-13, .cls-14 {
        stroke: #fff;
        stroke-miterlimit: 16.533;
        stroke-width: 0.529px;
      }
      .cls-11 {
        fill: url(#a);
      }
      .cls-12 {
        fill: url(#d);
      }
      .cls-13 {
        fill: url(#c);
      }
      .cls-14 {
        fill: url(#b);
      }</style>
<linearGradient id="a" x1="29.96" x2="29.96" y1="247.41" y2="229.86" gradientTransform="matrix(2.051 0 0 -2.051 335.34 525.44)" gradientUnits="userSpaceOnUse">
<stop stop-color="#262125" offset="0"/>
<stop stop-color="#524750" offset="1"/>
</linearGradient>
<linearGradient id="d" x1="-245.56" x2="-245.56" y1="386.84" y2="382.2" gradientTransform="matrix(7.752 0 0 -7.752 2336.4 3016.8)" xlink:href="#a"/>
<linearGradient id="c" x1="65.058" x2="65.058" y1="247.41" y2="229.86" xlink:href="#a"/>
<linearGradient id="b" x1="-236.28" x2="-236.28" y1="386.84" y2="382.2" gradientTransform="matrix(7.752 0 0 -7.752 2336.4 3016.8)" xlink:href="#a"/>
</defs>
<g data-name="Layer 1">
<a href="https://github.com/ghost2-discord/ghost2">
<path class="cls-1" transform="translate(0 .265)" d="M103.155,60.572a13.609,13.609,0,0,1-5.571-1.215,9.767,9.767,0,0,1-4.217-3.387l-.216-.318,2.892-3.343.376.464a7.935,7.935,0,0,0,6.432,3.26A6.2,6.2,0,0,0,107.43,54.4a6.363,6.363,0,0,0,1.624-4.663v-.965a9.662,9.662,0,0,1-6.6,2.286,9.175,9.175,0,0,1-7.6-3.782c-1.9-2.468-2.858-5.859-2.858-10.078,0-4.049.959-7.326,2.849-9.741a9.285,9.285,0,0,1,7.659-3.7,9.381,9.381,0,0,1,6.831,2.578l.158-2.109h4.925v25.25a10.843,10.843,0,0,1-3.069,8.116A11.3,11.3,0,0,1,103.155,60.572Zm.422-32.132a5.245,5.245,0,0,0-4.54,2.254c-1.119,1.546-1.686,3.9-1.686,7a10.945,10.945,0,0,0,1.664,6.447,5.194,5.194,0,0,0,4.515,2.241,5.82,5.82,0,0,0,5.524-3.35V31.7A5.887,5.887,0,0,0,103.577,28.44Z"/>
<path class="cls-1" transform="translate(0 .265)" d="M135.562,50.588V33.307a5.4,5.4,0,0,0-1.119-3.713,4.582,4.582,0,0,0-3.467-1.154,5.793,5.793,0,0,0-3.415,1.034,7.157,7.157,0,0,0-2.273,2.661V50.588h-5.336v-37h5.336V26.513a9.691,9.691,0,0,1,7-2.753c5.664,0,8.56,3.219,8.609,9.567V50.588Z"/>
<path class="cls-1" transform="translate(0 .265)" d="M157.3,51.057a11.2,11.2,0,0,1-8.729-3.753,14.27,14.27,0,0,1-3.326-9.825v-.3a15.545,15.545,0,0,1,1.516-6.924,11.478,11.478,0,0,1,4.264-4.8,11.65,11.65,0,0,1,6.228-1.692A11.223,11.223,0,0,1,166,27.513c2.207,2.474,3.326,5.8,3.326,9.872v.3a15.669,15.669,0,0,1-1.468,6.862,11.3,11.3,0,0,1-4.24,4.79A11.779,11.779,0,0,1,157.3,51.057Zm-.047-22.734a5.7,5.7,0,0,0-4.784,2.36c-1.237,1.6-1.864,3.963-1.864,7.006a10.413,10.413,0,0,0,1.854,6.47,6.131,6.131,0,0,0,9.691-.031,11.442,11.442,0,0,0,1.845-6.954,10.4,10.4,0,0,0-1.877-6.458A5.772,5.772,0,0,0,157.249,28.323Z"/>
<path class="cls-1" transform="translate(0 .265)" d="M183.593,51.057a13.322,13.322,0,0,1-5.6-1.124,9.293,9.293,0,0,1-3.871-3.184,7.778,7.778,0,0,1-1.412-4.466v-.5h5.31l.025.474a3.981,3.981,0,0,0,1.556,3.09,6.321,6.321,0,0,0,3.992,1.171,6.544,6.544,0,0,0,3.671-.912,2.568,2.568,0,0,0,1.266-2.245,2.7,2.7,0,0,0-1.12-2.327,12.388,12.388,0,0,0-4.426-1.59,22.393,22.393,0,0,1-5.349-1.731,7.953,7.953,0,0,1-3.045-2.507,6.123,6.123,0,0,1-1.013-3.516,7.087,7.087,0,0,1,2.82-5.661,10.833,10.833,0,0,1,7.055-2.269,11.127,11.127,0,0,1,7.316,2.342,7.583,7.583,0,0,1,2.864,6.08v.5h-5.36v-.5a3.412,3.412,0,0,0-1.335-2.69,5.139,5.139,0,0,0-3.485-1.169,5.48,5.48,0,0,0-3.4.927,2.748,2.748,0,0,0-1.142,2.3,2.143,2.143,0,0,0,1.012,1.947,14.956,14.956,0,0,0,4.328,1.456,24.008,24.008,0,0,1,5.376,1.775,8.2,8.2,0,0,1,3.177,2.589,6.49,6.49,0,0,1,1.06,3.741,6.994,6.994,0,0,1-2.917,5.848A11.939,11.939,0,0,1,183.593,51.057Z"/>
<path class="cls-1" transform="translate(0 .265)" d="M206.421,51.057a5.9,5.9,0,0,1-4.766-1.937,8.063,8.063,0,0,1-1.593-5.313V28.581h-4.618V24.229h4.618V18.088H205.4v6.141h4.735v4.352H205.4V43.826a3.074,3.074,0,0,0,.518,1.969,2.22,2.22,0,0,0,1.772.582,10.039,10.039,0,0,0,1.957-.271l.6-.128v4.495l-.369.1A13.192,13.192,0,0,1,206.421,51.057Z"/>
<circle class="cls-2" transform="matrix(.16 -.987 .987 .16 -5.302 66.033)" cx="36" cy="36" r="35.5"/>
<path class="cls-3" transform="translate(0 .265)" d="M36,1A35,35,0,1,1,1,36,35.04,35.04,0,0,1,36,1m0-1A36,36,0,1,0,72,36,36,36,0,0,0,36,0Z"/>
<polygon class="cls-4" points="23.117 21.855 30.417 29.156 34.708 24.865 34.708 10.208 33.682 9.265"/>
<polygon class="cls-5" points="9 33.962 10.046 35.09 24.483 35.09 28.805 30.768 21.506 23.468"/>
<polygon class="cls-4" points="9 38.681 21.517 49.182 28.932 41.767 24.563 37.398 10.076 37.398"/>
<polygon class="cls-4" points="23.062 50.721 33.587 63.265 34.708 62.325 34.708 47.544 30.474 43.309"/>
<polygon class="cls-5" points="38.3 63.265 37.225 62.271 37.225 47.55 41.406 43.369 48.8 50.764"/>
<polygon class="cls-4" points="50.41 49.149 43.018 41.757 47.403 37.372 61.882 37.398 63 38.584"/>
<polygon class="cls-5" points="62.946 33.904 61.951 35.09 47.431 35.09 43.061 30.721 50.403 23.379"/>
<polygon class="cls-5" points="38.34 9.341 37.225 10.277 37.225 24.884 41.519 29.179 48.841 21.856"/>
<circle class="cls-6" cx="36" cy="36.265" r="6.536"/>
<polygon class="cls-7" points="35.647 32.025 32.062 35.611 32.062 36.918 35.647 40.504 35.647 37.911 33.993 36.265 35.647 34.611"/>
<polygon class="cls-7" points="36.353 40.504 39.938 36.918 39.938 35.611 36.353 32.025 36.353 34.618 38.007 36.265 36.353 37.919"/>
<circle class="cls-7" cx="36" cy="36.265" r=".941"/>
</a>
</g>
<g data-name="Layer 2">
<a href="https://github.com/cbryant02/qnes">
<circle class="cls-8" cx="325.76" cy="36.265" r="36"/>
<path class="cls-9" transform="translate(0 .265)" d="m318.59 20.137v5.787h-5.8v11.589h5.793v5.787h11.58v11.58h11.577v-34.743zm5.762 5.765h5.819v11.6h-5.819z"/>
<path class="cls-10" transform="translate(0 .265)" d="m315.58 17.122v5.788h-5.8v11.59h5.793v5.78h11.58v11.586h11.578v-34.744zm5.761 5.762h5.816v11.606h-5.813z"/>
<path class="cls-11" transform="translate(0 .265)" d="M387.779,18v5.986h-6.022V36.023h6.022v5.986h11.955V54h12.091V18Zm5.932,5.986h6.023V36.023h-6.023Z"/>
<path class="cls-12" transform="translate(0 .265)" d="M417.838,48.023V18h23.946v5.986h5.941V48.023H435.816V23.986h-6.023V48.023Z"/>
<path class="cls-13" transform="translate(0 .265)" d="M459.716,18v5.986h-5.923V42h5.923v6.023h18.059V42H465.739V36.023h18.022V23.977h-5.986v6.114H465.739V23.977h12.036V18Z"/>
<path class="cls-14" transform="translate(0 .265)" d="M489.729,48.023h30.023V30.091H501.775v-6.1h17.968l.045-5.959-30.059-.018V36.023h18.059v5.986H489.729Z"/>
</a>
</g>
</svg>